<svg xmlns="http://www.w3.org/2000/svg" id="Titles" viewBox="0 0 64 64"><defs><style>.cls-1,.cls-5{fill:#fff}.cls-2{fill:#e5e5e5}.cls-3{fill:none}.cls-3,.cls-5{stroke:#556a8a;stroke-miterlimit:10;stroke-width:2px}.cls-4{fill:#556a8a}.cls-6{fill:#2bc7f4}</style></defs><title>i_responsive</title><g><path d="M56.31,9H4.69A3.67,3.67,0,0,0,1,12.63V44.39A3.67,3.67,0,0,0,4.69,48H56.31A3.67,3.67,0,0,0,60,44.39V12.63A3.67,3.67,0,0,0,56.31,9Z" class="cls-1"/><path d="M60,12.33V23H1V12.33A3.31,3.31,0,0,1,4.28,9H56.72A3.31,3.31,0,0,1,60,12.33Z" class="cls-2"/><path d="M56.31,9H4.69A3.67,3.67,0,0,0,1,12.63V44.39A3.67,3.67,0,0,0,4.69,48H56.31A3.67,3.67,0,0,0,60,44.39V12.63A3.67,3.67,0,0,0,56.31,9Z" class="cls-3"/><polygon points="42.6 55.1 17.86 55.1 15 57 45.45 57 42.6 55.1" class="cls-4"/><polygon points="31.93 55.63 29.07 55.63 29.55 48.02 31.45 48.02 31.93 55.63" class="cls-4"/></g><g><path d="M63,60.87A2.06,2.06,0,0,1,61,63H40a2.06,2.06,0,0,1-2-2.13V21.13A2.06,2.06,0,0,1,40,19H61a2.06,2.06,0,0,1,2,2.13Z" class="cls-5"/><circle cx="50.5" cy="58.5" r="1.5" class="cls-6"/><rect width="19" height="34" x="41" y="22" class="cls-2"/></g><g><line x1="21.5" x2="55" y1="16.5" y2="50" class="cls-1"/><g><line x1="23.03" x2="53.47" y1="18.03" y2="48.47" class="cls-3"/><polygon points="21.94 28.5 23.94 28.43 23.57 18.58 33.43 18.94 33.5 16.94 21.5 16.5 21.94 28.5" class="cls-4"/><polygon points="43 49.56 43.07 47.56 52.92 47.92 52.56 38.07 54.56 38 55 50 43 49.56" class="cls-4"/></g></g></svg>