<svg xmlns="http://www.w3.org/2000/svg" id="ICONS-64x" viewBox="0 0 64 64"><defs><style>.cls-1{fill:#556a8a}.cls-2{fill:#fff}.cls-3{fill:#e5e5e5}.cls-4{fill:none;stroke:#556a8a;stroke-miterlimit:10;stroke-width:2px}</style></defs><title>i_search</title><rect width="8" height="41.29" x="40.76" y="25.12" class="cls-1" rx="4" ry="4" transform="translate(-19.25 45.06) rotate(-45)"/><path d="M22.4,2A20.93,20.93,0,0,0,1.5,22.91c0,.36,0,.73,0,1.09a20.9,20.9,0,0,0,41.75,0c0-.36,0-.73,0-1.1A20.94,20.94,0,0,0,22.4,2Z" class="cls-2"/><path d="M43.31,22.9c0,.37,0,.74,0,1.1H1.53c0-.36,0-.73,0-1.09a20.9,20.9,0,0,1,41.81,0Z" class="cls-3"/><path d="M1.5,22.91A20.9,20.9,0,1,0,22.4,2,20.93,20.93,0,0,0,1.5,22.91Z" class="cls-4"/></svg>